<?xml version="1.0" encoding="iso-8859-1"?>
<!-- Uploaded to: SVG Repo, www.svgrepo.com, Generator: SVG Repo Mixer Tools -->
<svg fill="#000000" height="800px" width="800px" version="1.1" id="Layer_1" xmlns="http://www.w3.org/2000/svg" xmlns:xlink="http://www.w3.org/1999/xlink"
	 viewBox="0 0 495.996 495.996" xml:space="preserve">
<g>
	<g>
		<polygon points="178.248,46.516 178.248,381.348 317.752,449.524 317.752,114.748 		"/>
	</g>
</g>
<g>
	<g>
		<path d="M155,45.32L3.848,80.584C2.092,80.992,0,82.556,0,84.352v326.792c0,1.184,0.484,2.304,1.416,3.04
			c0.696,0.544,1.516,0.836,2.376,0.836c0.296,0,1.504-0.036,1.8-0.104l149.412-35.336V45.32H155z"/>
	</g>
</g>
<g>
	<g>
		<path d="M494.624,81.308c-0.928-0.736-3.052-1-4.22-0.724l-149.408,35.88v334.212l151.164-35.764
			c1.744-0.416,3.836-1.976,3.836-3.768V84.352C496,83.164,495.564,82.044,494.624,81.308z"/>
	</g>
</g>
</svg>
